<?xml version="1.0" standalone="no"?>
<!DOCTYPE svg PUBLIC "-//W3C//DTD SVG 20010904//EN"
 "http://www.w3.org/TR/2001/REC-SVG-20010904/DTD/svg10.dtd">
<svg version="1.0" xmlns="http://www.w3.org/2000/svg"
viewBox="0 0 421.000000 424.000000"
 preserveAspectRatio="xMidYMid meet">
<metadata>
Created by potrace 1.15, written by Peter Selinger 2001-2017
</metadata>
<g transform="translate(0.000000,424.000000) scale(0.100000,-0.100000)"
fill="#000000" stroke="none">
<path d="M1823 4195 c-757 -115 -1374 -605 -1648 -1309 -209 -537 -181 -1151
75 -1671 l60 -121 -145 -529 c-79 -291 -143 -531 -140 -533 2 -2 247 60 545
138 l542 142 110 -52 c572 -268 1230 -265 1793 9 263 128 500 315 693 546 338
404 512 947 472 1470 -57 745 -493 1393 -1155 1716 -188 92 -345 143 -565 185
-119 22 -512 28 -637 9z m589 -354 c162 -28 318 -81 478 -162 179 -91 300
-179 440 -319 321 -321 489 -709 507 -1165 14 -379 -93 -738 -317 -1058 -96
-138 -299 -336 -440 -429 -295 -197 -573 -286 -920 -295 -354 -10 -615 57
-956 248 l-41 23 -316 -83 c-173 -46 -320 -82 -325 -80 -5 2 29 141 75 309 45
168 83 311 83 319 0 8 -17 41 -39 75 -272 431 -335 990 -166 1476 170 486 541
869 1025 1056 137 53 276 84 480 108 75 9 321 -4 432 -23z"/>
<path d="M1325 3088 c-73 -20 -184 -153 -236 -283 -21 -53 -23 -76 -23 -200 0
-137 1 -142 36 -239 103 -276 415 -660 724 -892 165 -124 311 -197 561 -281
219 -73 363 -71 523 8 115 57 198 140 224 224 25 79 33 199 15 221 -28 34
-454 234 -498 234 -34 0 -32 2 -132 -124 -93 -116 -123 -146 -150 -146 -40 0
-215 86 -320 155 -53 36 -134 100 -179 142 -132 124 -280 327 -280 384 0 17
20 48 61 95 64 73 109 149 109 184 0 20 -142 375 -180 450 -10 19 -26 42 -36
51 -24 21 -164 32 -219 17z"/>
</g>
</svg>
